<?xml version="1.0" encoding="utf-8"?>
<!-- Generator: Adobe Illustrator 25.0.0, SVG Export Plug-In . SVG Version: 6.00 Build 0)  -->
<svg version="1.1" id="Layer_1" xmlns="http://www.w3.org/2000/svg" xmlns:xlink="http://www.w3.org/1999/xlink" x="0px" y="0px"
	 viewBox="0 0 36 36" style="enable-background:new 0 0 36 36;" xml:space="preserve">
<style type="text/css">
	.st0{opacity:0.33;}
	.st1{opacity:0.66;}
</style>
<g>
	<path class="st0" d="M18.5,9.7c-0.6-0.1-1.9-0.2-3.3,0.6c-1.4,0.8-1.9,1.9-2.1,2.3c-0.6-0.1-1.5-0.3-2.6-0.2
		c-1.1,0.1-3.5,0.2-5.1,2.1c-1.7,2.1-1.3,4.7-1.2,5.1c-3,0.6-4.4,3-4,4.6c0.3,1.1,1.5,1.8,2.9,2.1l4.6,0
		C14.7,24.1,21.9,17.9,18.5,9.7z"/>
	<path class="st1" d="M26.7,15.3c-0.6,0.1-1,0.2-1.1,0.2c0.3-1.6-0.4-3.1-1.6-3.8c-0.9-0.5-1.8-0.3-2.1-0.2
		c-0.3-0.4-1.4-1.5-3.2-1.8c-0.1,0-0.2,0-0.3,0c3.4,8.2-3.8,14.3-10.7,16.6l16.1-0.1C26.7,23.1,27.4,19.2,26.7,15.3z"/>
	<path d="M35.5,21.5c-0.8-1.9-3.2-2.8-5.3-1.8c0.4-1.5-0.2-3-1.3-3.8c-0.8-0.5-1.6-0.6-2.2-0.5c0.7,3.9,0,7.8-2.8,10.9l10.2,0
		C35.7,25.1,36.2,23.1,35.5,21.5z"/>
</g>
</svg>
