<?xml version="1.0" encoding="utf-8"?>
<!-- Generator: Adobe Illustrator 25.0.0, SVG Export Plug-In . SVG Version: 6.00 Build 0)  -->
<svg version="1.1" id="Layer_1" xmlns="http://www.w3.org/2000/svg" xmlns:xlink="http://www.w3.org/1999/xlink" x="0px" y="0px"
	 viewBox="0 0 36 36" style="enable-background:new 0 0 36 36;" xml:space="preserve">
<style type="text/css">
	.st0{opacity:0.5;}
</style>
<g>
	<polygon points="3.6,2.7 10.7,15.9 17.9,11.3 	"/>
	<polygon points="32.2,2.7 25.1,16 17.9,11.3 	"/>
	<path d="M23,25.5c-0.9,0-1.6-0.7-1.6-1.6c0-0.9,0.7-1.6,1.6-1.6s1.6,0.7,1.6,1.6C24.6,24.8,23.9,25.5,23,25.5z M17.9,11.3L0.5,22.4
		v1.3L17,34.2h1c-1.1,0-1.9-0.9-1.9-2c0-1.1,0.8-2.1,1.9-2.1s1.9,0.9,1.9,2.1c0,1.1-0.8,2-1.9,2h1l16.5-10.4v-1.1L17.9,11.3z
		 M12.8,25.5c-0.9,0-1.6-0.7-1.6-1.6c0-0.9,0.7-1.6,1.6-1.6s1.6,0.7,1.6,1.6C14.3,24.8,13.6,25.5,12.8,25.5z"/>
	<path class="st0" d="M3.8,2.9C3.6,2.7,3.4,2.5,3.2,2.3C3.1,2.2,2.6,1.8,1.9,1.8c-0.2,0-0.8,0-1.1,0.4C0.6,2.5,0.5,2.8,0.5,2.9v19.7
		l10.3-6.5L3.8,2.9z"/>
	<path class="st0" d="M31.9,3c0.2-0.2,0.4-0.4,0.6-0.6c0.1-0.1,0.9-0.5,1.6-0.5c0.2,0,0.8,0,1.1,0.4c0.2,0.2,0.3,0.5,0.3,0.7v19.7
		l-10.6-6.5L31.9,3z"/>
</g>
</svg>
