<?xml version="1.0" encoding="utf-8"?>
<!-- Generator: Adobe Illustrator 25.0.0, SVG Export Plug-In . SVG Version: 6.00 Build 0)  -->
<svg version="1.1" id="Layer_1" xmlns="http://www.w3.org/2000/svg" xmlns:xlink="http://www.w3.org/1999/xlink" x="0px" y="0px"
	 viewBox="0 0 36 36" style="enable-background:new 0 0 36 36;" xml:space="preserve">
<g>
	<circle cx="18.1" cy="18.5" r="6.3"/>
	<path d="M12.6,34.7c-0.4,0-0.9-0.1-1.2-0.2c-2-0.9-8.2-4.1-10.2-11.3c-1.9-7.1,1.5-12.8,2.3-14c0.9-1.4,3-4.1,6.7-6
		c4.6-2.3,8.9-1.9,11-1.6c3.8,0.7,6.4,2.4,7.1,3c0.8,0.6,3.8,2.9,5.7,7.1c0.4,1,1.6,4,1.4,8c-0.1,1.4-0.3,4.5-2.2,7.8
		c-0.5,0.8-2.2,3.5-5.5,5.6c-1.2,0.8-2.5,1.2-3.5,1.6c-0.7,0.2-1.4,0.2-2-0.1c-0.9-0.4-1.6-1.2-1.8-2.2c-0.1-0.7,0-1.5,0.4-2.2
		c0.4-0.6,0.9-1.1,1.6-1.4c1.1-0.5,3.1-1.8,4.6-3.9c0.5-0.7,2.2-3.3,1.9-7c-0.3-3.3-2-5.4-2.7-6.2c-0.6-0.7-2.3-2.8-5.4-3.7
		c-1.3-0.4-2.3-0.4-3.1-0.4c-0.5,0-6.1,0.4-9,5.4c-2.1,3.6-1.4,7.2-1.2,8c0.2,0.7,0.9,3.8,3.8,6.2c0.9,0.7,1.8,1.2,2.6,1.6
		c0.5,0.2,1,0.6,1.4,1c0.2,0.2,0.3,0.4,0.4,0.7c0.1,0.2,0.7,1.7-0.1,3C15,34.2,13.8,34.7,12.6,34.7z"/>
</g>
</svg>
