<?xml version="1.0" encoding="utf-8"?>
<!-- Generator: Adobe Illustrator 26.1.0, SVG Export Plug-In . SVG Version: 6.00 Build 0)  -->
<svg version="1.1" id="Layer_1" xmlns="http://www.w3.org/2000/svg" xmlns:xlink="http://www.w3.org/1999/xlink" x="0px" y="0px"
	 viewBox="0 0 36 36" style="enable-background:new 0 0 36 36;" xml:space="preserve">
<g>
	<path d="M32.2,4.4c-0.8-0.2-1.7-0.2-2.5-0.3c-3.2-0.3-6.5-0.6-9.7-0.8c-3.8-0.3-7.7-0.7-11.6-0.8c-2.6-0.1-4,0.9-4.6,3.4
		c-1.1,4.8-2.2,9.5-3.1,14.3c-0.7,3.7,0.9,5.6,4.6,6.3c0.4,0.1,0.7,0.2,1.3,0.3c-2,2.4-3.8,4.7-5.7,6.9c0.3,0.1,0.5,0,0.6-0.1
		c3.7-1.6,7.5-3.3,11.2-4.9c0.9-0.4,2-0.8,2.9-0.8c2,0,4,0.4,6,0.5c2.7,0.2,5.5,0.4,8.2,0.5c2.1,0.1,3.7-1.4,3.9-3.5
		c0.4-3.5,0.8-7,1.1-10.5c0.2-2,0.4-4,0.5-6C35.5,6.4,34.3,4.8,32.2,4.4z M34.2,7.9c-0.3,3.1-0.6,6.2-1,9.3c-0.3,2.4-0.6,4.7-1,7.1
		c-0.4,2-1.3,2.5-3.3,2.3c-5.1-0.5-10.2-1-15.3-1.5c-2.9-0.3-5.8-0.5-8.8-0.9c-2.2-0.3-3.1-1.5-2.7-3.6C3,15.8,4,10.9,5,6
		c0.4-2.1,1.4-3.4,3.8-3.2C13.6,3.2,18,3.6,22.5,4c3.1,0.3,6.3,0.6,9.4,1C33.6,5.1,34.4,6.2,34.2,7.9z"/>
	<path d="M30.3,5.9c-6.7-0.7-13.4-1.3-20.2-2C7.8,3.9,6.8,4.5,6.3,6.9c-1,4.2-1.8,8.5-2.6,12.8c-0.4,1.9,0.4,3,2.3,3.2
		c3.6,0.4,7.1,0.8,10.7,1.1c3.7,0.4,7.3,0.6,11,1c2.1,0.2,2.9-0.2,3.3-2.3c0.3-1.8,0.6-3.7,0.8-5.5c0.4-2.9,0.8-5.8,1-8.7
		C32.8,6.9,32,6.1,30.3,5.9z M18.8,22.6c-4.6,0-8.1-3.4-8.1-7.9c0-4.2,3.7-7.9,8.1-7.9c4.7,0,8,3.2,8,7.8
		C26.7,19.2,23.4,22.6,18.8,22.6z"/>
	<path d="M23.5,17.1v3.4c-1.2-0.3-2.2-0.6-3.3-0.9c1-1.6-1-2.3-1.1-3.6c0.4-0.3,0.8-0.6,1.2-1C21.6,15.4,21.6,17.5,23.5,17.1z"/>
	<path d="M24.7,11c-0.4,1.3-2.5,1.2-2.1,3h-3.4c0.3-1.2,0.6-2.2,0.9-3.3c1.7,1.1,2.3-1,3.7-1C24.1,10.1,24.5,10.6,24.7,11z"/>
	<path d="M18.7,13.3c-0.3,0.3-0.8,0.7-1.2,1c-1.3-0.3-1.4-2.4-3.3-1.8V9.1c1,0.2,2,0.4,3.1,0.6C16.3,11.5,18.5,11.9,18.7,13.3z"/>
	<path d="M18,15c-0.2,1.1-0.5,2.1-0.7,3.2c-1.7-1-2.2,1.1-3.6,1.2c-0.3-0.4-0.7-0.8-1-1.2c0.4-1.3,2.5-1.3,1.9-3.2
		C14.7,15,18,15,18,15z"/>
</g>
</svg>
