<?xml version="1.0" encoding="utf-8"?>
<!-- Generator: Adobe Illustrator 25.0.0, SVG Export Plug-In . SVG Version: 6.00 Build 0)  -->
<svg version="1.1" id="Layer_1" xmlns="http://www.w3.org/2000/svg" xmlns:xlink="http://www.w3.org/1999/xlink" x="0px" y="0px"
	 viewBox="0 0 36 36" style="enable-background:new 0 0 36 36;" xml:space="preserve">
<style type="text/css">
	.st0{fill:#010101;}
</style>
<g>
	<path class="st0" d="M24.1,26.7l-6.8,3.6l-5.4-2.9c-0.5-0.3-0.7-0.9-0.4-1.4c0.1-0.2,0.3-0.3,0.4-0.4l7-3.7l5.2,2.8
		c0.5,0.3,0.8,1,0.5,1.5C24.4,26.4,24.3,26.6,24.1,26.7z"/>
	<g>
		<path class="st0" d="M35.9,11v20l-7.3-4c-1.2-0.6-1.9-1.9-1.9-3.2v-6.2c0-0.5-0.4-0.9-0.9-0.9c-0.1,0-0.3,0-0.4,0.1L17.6,21
			l-8.7,4.6l-4.8,2.5c-1.8,1-4-0.4-4-2.4V10.5l7.3,3.9l0,0c0.9,0.5,2,0.5,2.9,0l0,0l7.7-4.1l8.7-4.6l0,0c0.5-0.3,1.2-0.3,1.7,0
			l6.9,4C35.7,10.1,35.9,10.5,35.9,11z"/>
		<path class="st0" d="M14.9,10.5L10.1,13c-0.8,0.4-1.7,0.4-2.5,0L1.3,9.6L8.9,5l6,3.6c0.5,0.3,0.7,1,0.4,1.5
			C15.2,10.3,15.1,10.4,14.9,10.5z"/>
	</g>
</g>
</svg>
