<?xml version="1.0" encoding="utf-8"?>
<!-- Generator: Adobe Illustrator 25.0.0, SVG Export Plug-In . SVG Version: 6.00 Build 0)  -->
<svg version="1.1" id="Layer_1" xmlns="http://www.w3.org/2000/svg" xmlns:xlink="http://www.w3.org/1999/xlink" x="0px" y="0px"
	 viewBox="0 0 36 36" style="enable-background:new 0 0 36 36;" xml:space="preserve">
<style type="text/css">
	.st0{fill:none;}
	.st1{opacity:0.75;}
	.st2{opacity:0.8;}
</style>
<polygon class="st0" points="8.8,32 8.9,32 8.9,32.8 8.8,32.8 8.8,32.4 8.5,32.4 8.5,32.8 8.4,32.8 8.4,32 8.5,32 8.5,32.3 
	8.8,32.3 "/>
<path d="M17.7,31.2c-1.1,0-2-0.9-2-2c0-1.1,0.9-2,2-2c1.1,0,2,0.9,2,2C19.7,30.3,18.8,31.2,17.7,31.2z M33.2,8.3c0,0-14.2-16-30.6,0
	L4,9.8l2.9,3c0,0-0.1,0.2-0.2,0.6c0,0.2-0.1,0.4-0.1,0.7c0,0.2-0.1,0.4-0.1,0.6c0,1,0.2,2.4,1.5,3.5c0,0,0.1,0.1,0.1,0.1
	c0.2,0.2,0.5,0.4,0.7,0.5c0.3,0.2,1.4,0.5,1.5,0.4c0.6,0.1,1.2,0,1.6-0.1c0.3-0.1,0.6-0.2,0.8-0.3c0,0,0.1,0,0.1-0.1
	c0.1,0,0.1-0.1,0.1-0.1l1.1,1.2l-0.2,0.2l1.3,1.3h-2.8c-0.3,0.2-0.5,0.2-0.5,0.2s-3.4,0.2-4.9,0h0c-0.2,0.1-0.3,0.3-0.3,0.7v0.9
	l9.4,5.7L15.6,29l-1.9-1.1l-7.3,4.7c0,0.8,0,1.4,0,1.4s0,0.8,1,0.8c1.3,0,1.3,0,1.3,0h20.1c0,0,0.9,0,0.9-0.9v-1l-7.7-5L20.2,29l0,0
	l0,0L20,28.8h0l9.4-5.7l0.4-0.3c0-0.5,0-0.8,0-0.8c0-0.1,0-0.8-1-0.9h-0.2c-0.9,0.1-2,0.1-2.8,0c-2.4,0-5.2,0-5.2,0l1.4-1.4l1.1-1.1
	c0,0,0,0,0,0c0,0,0,0,0,0c0,0,0.1,0,0.2,0c0.1,0,0.2,0.1,0.4,0.1c0.1,0,0.3,0.1,0.5,0.1c0.4,0,0.8,0,1.3,0c0.3,0,0.5-0.1,0.7-0.2
	c0,0,0,0,0.1,0c0.3-0.1,0.6-0.2,0.8-0.3c0,0,0,0,0.1,0c0.2-0.1,0.5-0.3,0.7-0.5c1.9-1.6,1.7-4.5,1.6-5.4c0-0.1,0-0.2,0-0.2L32,9.5
	L33.2,8.3z"/>
<path d="M23.1,18.6C23.1,18.6,23.1,18.6,23.1,18.6L22,19.8L23.1,18.6z"/>
<path d="M28.6,21.2c-0.9,0.1-2,0.1-2.8,0C27.1,21.2,28.1,21.2,28.6,21.2z"/>
<path d="M7.4,21.2h4.8c-0.3,0.2-0.5,0.2-0.5,0.2s-3.4,0.2-4.9,0C7,21.2,7.3,21.2,7.4,21.2z"/>
<path d="M14,19.7l-0.3,0.2l-1.1-1.2c0,0,0.1,0,0.1-0.1c0.1,0,0.1-0.1,0.1-0.1L14,19.7z"/>
<path d="M6.5,14c0,0.2-0.1,0.4-0.1,0.6v-0.2C6.4,14.3,6.4,14.2,6.5,14z"/>
<path d="M23.1,18.6c0.5,0.2,1.4,0.5,2.5,0.2c0.5-0.1,2.6-0.6,3.5-2.6c0.8-1.8,0.5-3.7,0.3-4L23.1,18.6z"/>
<path class="st1" d="M14,19.7l-0.3,0.2c-0.7,0.8-1.2,1.1-1.5,1.3c-0.3,0.2-0.5,0.2-0.5,0.2s-3.4,0.2-4.9,0h0c-1.6-0.2-5-2.8-4.9-6.8
	C2,10.8,4,9.8,4,9.8l2.8,3c0,0-0.1,0.2-0.2,0.6c0,0.2-0.1,0.4-0.1,0.7c0,0.2-0.1,0.4-0.1,0.6c0,1,0.2,2.4,1.5,3.5
	c0,0,0.1,0.1,0.1,0.1c0.3,0.2,0.5,0.4,0.7,0.5c0.3,0.2,1.1,0.4,1.1,0.4c0.8,0.1,1.4,0.1,2-0.1c0.3-0.1,0.6-0.2,0.8-0.3
	c0,0,0.1,0,0.1-0.1c0.1,0,0.1-0.1,0.1-0.1L14,19.7z"/>
<path class="st1" d="M34.1,14.4c-0.4,3.2-1.7,4.9-3.7,6.2c-0.4,0.3-1,0.5-1.6,0.6h-0.2c-0.9,0.1-2,0.1-2.8,0
	c-1.3-0.2-2.3-0.5-2.4-0.6L22,19.8l1.1-1.1c0,0,0,0,0,0c0.4,0.1,2.8,0.8,4.8-0.9c2.2-1.8,1.6-5.6,1.6-5.6L32,9.5
	C32,9.5,34.5,11.2,34.1,14.4z"/>
<polygon points="18.4,28.3 18.4,30.1 18.2,30.1 18.2,29.2 17.4,29.2 17.4,30.1 17.2,30.1 17.2,28.3 17.5,28.3 17.5,28.8 18.1,28.8 
	18.1,28.3 "/>
<polygon points="18.4,28.3 18.4,30.1 18.2,30.1 18.2,29.2 17.4,29.2 17.4,30.1 17.2,30.1 17.2,28.3 17.5,28.3 17.5,28.8 18.1,28.8 
	18.1,28.3 "/>
<polygon class="st2" points="6.5,23.1 15.9,28.8 15.6,29 13.8,27.9 6.5,32.6 "/>
<polygon class="st2" points="29.8,22.8 20,28.8 20.2,29 22.1,27.9 29.8,32.9 "/>
</svg>
