<?xml version="1.0" encoding="utf-8"?>
<!-- Generator: Adobe Illustrator 25.0.0, SVG Export Plug-In . SVG Version: 6.00 Build 0)  -->
<svg version="1.1" id="Layer_1" xmlns="http://www.w3.org/2000/svg" xmlns:xlink="http://www.w3.org/1999/xlink" x="0px" y="0px"
	 viewBox="0 0 36 36" style="enable-background:new 0 0 36 36;" xml:space="preserve">
<g>
	<circle cx="11" cy="4.5" r="3.7"/>
	<circle cx="24.9" cy="4.5" r="3.7"/>
	<path d="M19.8,17.3c-0.2-3.9-3.4-6-3.8-6.2c-0.6-0.4-3.1-1.8-6.2-1.1c-4.3,1-5.8,5.3-5.9,5.6c-0.1,0.6-0.2,1.5-0.1,2.3
		c0,0.1,0,0.2,0,0.3c0.2,1.9,1.1,3.6,2.3,4.9l5.6,5.9l5.8-5.8c1.1-1.2,2-2.6,2.2-4.2C19.7,18.5,19.8,17.9,19.8,17.3z M15.8,18.5
		c-0.1,0.8-0.6,1.6-1.1,2.2l-2.9,3l-2.8-3c-0.7-0.7-1.1-1.6-1.2-2.5c0-0.1,0-0.1,0-0.2c0-0.4,0-0.9,0.1-1.2c0-0.1,0.8-2.3,3-2.9
		c1.6-0.4,2.9,0.4,3.2,0.6c0.2,0.1,1.8,1.2,1.9,3.2C15.8,17.9,15.8,18.2,15.8,18.5z"/>
	<path d="M30.5,22.6L17.9,35.3l-5.2-5.2l3.1-2.8l2.1,2.2l8.9-8.8c0.7-0.7,1.2-1.6,1.3-2.6c0-0.5,0-1.1-0.3-1.7
		c-0.6-1.3-1.8-1.8-2.2-1.9c-0.5-0.2-2.2-0.8-3.4,0.2c-0.4,0.3-1,0.7-1.1,1l-1.9-3.9c0.6-0.5,2-1.5,4-1.8c0.6-0.1,3.1-0.3,5.5,1.3
		c0.4,0.3,2.1,1.4,3,3.7c0.4,1,1.2,3.5,0.1,6c0,0.1-0.1,0.1-0.1,0.2C31.4,21.6,31,22.1,30.5,22.6z"/>
</g>
</svg>
