<?xml version="1.0" encoding="utf-8"?>
<!-- Generator: Adobe Illustrator 25.0.0, SVG Export Plug-In . SVG Version: 6.00 Build 0)  -->
<svg version="1.1" id="Layer_1" xmlns="http://www.w3.org/2000/svg" xmlns:xlink="http://www.w3.org/1999/xlink" x="0px" y="0px"
	 viewBox="0 0 36 36" style="enable-background:new 0 0 36 36;" xml:space="preserve">
<g>
	<path d="M15.1,11.1C17,9,16.8,7.6,16.7,6.6c-0.1-1.1-0.7-4.1-3.9-4.2c-3.2-0.1-7.9,0-7.9,0l0,0.4v0.5H6v14.2l-0.7,0.6H3.8v0.9h6.1
		V18H8.8l-0.4-0.5v-4.6C8.4,12.9,13.2,13.2,15.1,11.1z M8.4,3.7h3.4c0,0,2,0.1,2.5,2.1c0.4,1.4,0.2,2.6,0.1,3.1
		c-0.1,0.2-0.1,0.4-0.2,0.5c-0.4,0.6-1.4,1.8-2.9,2c0,0-1.5,0.3-2.7-0.2V3.7z"/>
	<polygon points="8.8,18.4 15.6,35 20,24.7 24,35 30.8,18.4 26.1,18.4 26.1,19.1 28.2,19.1 24.7,28.7 21,19.1 23.2,19.1 23.2,18.4 
		16,18.4 16,19.2 17.3,19.2 19.3,23.2 16.3,30.2 12.7,19.2 13.8,19.2 13.8,18.4 	"/>
</g>
</svg>
