<?xml version="1.0" encoding="utf-8"?>
<!-- Generator: Adobe Illustrator 25.0.1, SVG Export Plug-In . SVG Version: 6.00 Build 0)  -->
<svg version="1.1" id="Layer_1" xmlns="http://www.w3.org/2000/svg" xmlns:xlink="http://www.w3.org/1999/xlink" x="0px" y="0px"
	 viewBox="0 0 36 36" style="enable-background:new 0 0 36 36;" xml:space="preserve">
<style type="text/css">
	.st0{fill:#231F20;}
	.st1{fill:url(#SVGID_1_);}
	.st2{fill:url(#SVGID_2_);}
</style>
<g>
	<path class="st0" d="M1.1,11.1v16.7c0,0.9,0.3,1.9,1,2.5c0,0,0,0,0,0c0.7,0.8,1.5,1.1,1.9,1.2h23.6V9.7L15.1,20.4
		c-0.3,0.1-0.7,0.2-1.3,0.2c-1,0-1.8-0.6-2-0.8C8.3,16.9,4.7,14,1.1,11.1z"/>
	
		<linearGradient id="SVGID_1_" gradientUnits="userSpaceOnUse" x1="20.6023" y1="23.274" x2="2.6708" y2="23.4629" gradientTransform="matrix(1 0 0 -1 0 36)">
		<stop  offset="1.030928e-02" style="stop-color:#000000;stop-opacity:0.3"/>
		<stop  offset="1" style="stop-color:#000000"/>
	</linearGradient>
	<path class="st1" d="M1.1,11.1V5.2c0-0.1,0.2-0.4,0.6-0.6c0.4-0.1,0.8,0.1,0.9,0.1l13.9,11.4c0.2,0.2,0.5,0.3,0.7,0.4
		c0.3,0.1,0.6,0.1,0.8,0.1c0.7,0,1.2-0.2,1.6-0.4c0.6-0.2,0.9-0.5,0.9-0.4c0,0.1-1,1.1-5.4,4.7c-0.2,0.1-0.6,0.2-1.1,0.2
		c0,0-0.9,0-1.8-0.5C11.2,19.5,6.8,16,1.1,11.1z"/>
	
		<linearGradient id="SVGID_2_" gradientUnits="userSpaceOnUse" x1="26.3463" y1="5.7074" x2="36.1992" y2="28.0254" gradientTransform="matrix(1 0 0 -1 0 36)">
		<stop  offset="0" style="stop-color:#231F20;stop-opacity:0.5"/>
		<stop  offset="1" style="stop-color:#000000"/>
	</linearGradient>
	<path class="st2" d="M27.6,9.7c2-1.7,3.9-3.3,5.9-5c0,0,0.3-0.3,0.7-0.2c0.3,0.1,0.5,0.3,0.6,0.7c0,7.8,0.1,15.6,0.1,23.5
		c-0.1,0.4-0.3,0.9-0.7,1.5c-0.7,0.9-1.5,1.2-1.8,1.4c-1.6,0-3.2,0-4.8,0C27.6,24.2,27.6,16.9,27.6,9.7z"/>
</g>
</svg>
