<?xml version="1.0" encoding="utf-8"?>
<!-- Generator: Adobe Illustrator 25.0.0, SVG Export Plug-In . SVG Version: 6.00 Build 0)  -->
<svg version="1.1" id="Layer_1" xmlns="http://www.w3.org/2000/svg" xmlns:xlink="http://www.w3.org/1999/xlink" x="0px" y="0px"
	 viewBox="0 0 36 36" style="enable-background:new 0 0 36 36;" xml:space="preserve">
<image style="display:none;overflow:visible;" width="198" height="198" xlink:href="C:\Users\prans\AppData\Local\Packages\38833FF26BA1D.UnigramPreview_g9c9v27vpyspw\LocalState\0\documents\RetroArch_v1.10.1_GIT_ic_launcher.png"  transform="matrix(1 0 0 1 -283.25 -101.75)">
</image>
<path d="M30,19.8h5.6l-2-7.9l-2.5,0l0.8,4h-3.1L28,11.8h-5l2.2-2.8h-2.6l-2.3,2.8h-4.9l-2.1-2.8h-2.6l2.4,2.9l-4.9-0.1l-1,4.3H3.7
	l1-4.3l-2.3,0.1l-2.1,8.2h5.6l-0.8,2.9h5.4l-3.4,4.1h3.6l3.2-4.1H22l3.4,4.1h3.8l-3.5-3.8l0-0.4h4.9L30,19.8z M13.7,17.8h-3.6v-3.6
	h3.6V17.8z M25.6,17.8h-3.3v-3.6h3.3V17.8z"/>
</svg>
