<?xml version="1.0" encoding="utf-8"?>
<!-- Generator: Adobe Illustrator 25.0.0, SVG Export Plug-In . SVG Version: 6.00 Build 0)  -->
<svg version="1.1" id="Layer_1" xmlns="http://www.w3.org/2000/svg" xmlns:xlink="http://www.w3.org/1999/xlink" x="0px" y="0px"
	 viewBox="0 0 36 36" style="enable-background:new 0 0 36 36;" xml:space="preserve">
<path d="M18,1.6C8.9,1.6,1.6,8.9,1.6,18c0,9,7.3,16.4,16.4,16.4S34.4,27,34.4,18C34.4,8.9,27.1,1.6,18,1.6z M8.2,10.1l7.2,0l0-0.2
	V8.6h-0.5V8.1h-0.5V7.6h1.1v0.5l0.5,0v0.5H17v-1h0.5V7H17l0-1h0.5V5.5H18V6l0.5,0v1L18,7v0.5h0.5v1.1l1,0V8.1h0.5V7.6h1.1v0.5h-0.5
	v0.5h-0.5v1.5l7.1,0v3.5H8.2V10.1z M16.3,22.6l-3.5,1.2c0-1.7-2.3-8-2.3-8l3.3-1.2C14.7,15.1,16.3,22.6,16.3,22.6z M28,27.9H7.7
	v-3.8h10.6c1.4-1.8,2.9-9.8,2.9-9.8l3.6,1c0.3,3.6-2.7,9-2.7,9l5.9-0.1V27.9z"/>
</svg>
