<?xml version="1.0" encoding="utf-8"?>
<!-- Generator: Adobe Illustrator 24.1.2, SVG Export Plug-In . SVG Version: 6.00 Build 0)  -->
<svg version="1.1" id="Layer_1" xmlns="http://www.w3.org/2000/svg" xmlns:xlink="http://www.w3.org/1999/xlink" x="0px" y="0px"
	 viewBox="0 0 36 36" style="enable-background:new 0 0 36 36;" xml:space="preserve">
<style type="text/css">
	.st0{fill:#010101;}
</style>
<g>
	<path class="st0" d="M1.59,9.24v3.26c0,0-0.17,1.19,2.61,4.68h1.41l1.78-2.76l1.9,2.76h1.51c0,0,1.79-2.63,2.56-4.22V9.24h-1.92
		v3.42l-1.34,2.4l-1.73-2.48L8.4,9.24H6.56v3.36l-1.44,2.44l-1.48-2.53V9.24H1.59z"/>
	<path class="st0" d="M22.87,9.37l-1.79-0.38v1.15l-0.22-0.01c-0.18-0.22-1.18-1.36-2.73-1.43c-2.08-0.1-3.28,1.79-3.45,2.07
		c-0.95,1.55-0.77,3.5,0.11,4.82c0.16,0.23,0.91,1.38,2.34,1.73c0.28,0.07,0.94,0.22,1.73-0.02c0.97-0.3,1.54-0.95,1.71-1.19
		l0.25,0.09v0.98h1.84c0,0-0.19-5.57,0-6.49C22.86,9.77,22.87,9.37,22.87,9.37z M20.65,13.01c0,0.33,0,1.15-0.62,1.83
		c-0.13,0.14-0.69,0.73-1.57,0.75c-0.7,0.02-1.19-0.33-1.34-0.43c-0.99-0.71-1.01-1.95-1-2.1c0-0.27,0.04-1,0.58-1.66
		c0.15-0.18,0.73-0.89,1.7-0.92c0.92-0.03,1.52,0.56,1.62,0.65C20.66,11.79,20.65,12.63,20.65,13.01z"/>
	<rect x="24.23" y="5.31" class="st0" width="2.09" height="11.86"/>
	<rect x="28.1" y="5.31" class="st0" width="2" height="11.86"/>
	<circle class="st0" cx="32.89" cy="15.96" r="1.21"/>
	<path class="st0" d="M4.57,18.15c0,0-2.62-0.28-3.51,2v2.32h-1.07v1.7h1.03v6.28h2.1v-6.3h1.74v-1.66H2.92v-1.52
		c0,0,0.26-1.28,1.75-1.17h0.45l-0.35-1.65L4.57,18.15z"/>
	<g>
		<path class="st0" d="M12.17,27.81c0,0-0.82,0.87-1.45,1.02c-0.63,0.15-1.4,0.11-1.4,0.11H8.97c0,0-0.61,0.12-1.65-1.22
			c0,0-0.13-0.23-0.11-0.48l4.6-0.39c0,0,1.22,0.14,1.06-1.1c-0.16-1.24-0.33-3.18-2.82-3.75c0,0-2.41-0.56-3.75,1.34
			c-1.34,1.89-1.18,3.28-1.18,3.28s-0.16,2.45,2.68,3.84c0,0,1.13,0.52,3.07,0c0.61-0.16,1.11-0.3,2.13-1.29L12.17,27.81z
			 M7.21,24.86c0.22-0.38,0.61-0.65,0.74-0.78c0.13-0.13,0.56-0.41,1.13-0.41c0.57,0,1.08,0.39,1.08,0.39
			c0.41,0.21,0.56,0.75,0.56,0.75v0.78l-3.51,0.14V24.86z"/>
	</g>
	<g>
		<path class="st0" d="M29.27,27.81c0,0-0.82,0.87-1.45,1.02c-0.63,0.15-1.41,0.11-1.41,0.11h-0.35c0,0-0.61,0.12-1.65-1.22
			c0,0-0.13-0.23-0.1-0.48l4.6-0.39c0,0,1.23,0.14,1.06-1.1c-0.17-1.24-0.33-3.18-2.82-3.75c0,0-2.41-0.56-3.75,1.34
			c-1.34,1.89-1.18,3.28-1.18,3.28s-0.16,2.45,2.68,3.84c0,0,1.13,0.52,3.07,0c0.61-0.16,1.11-0.3,2.13-1.29L29.27,27.81z
			 M24.31,24.86c0.22-0.38,0.61-0.65,0.74-0.78c0.13-0.13,0.57-0.41,1.14-0.41c0.57,0,1.08,0.39,1.08,0.39
			c0.42,0.21,0.57,0.75,0.57,0.75v0.78l-3.51,0.14V24.86z"/>
	</g>
	<polygon class="st0" points="15.77,22.56 15.77,25.74 17.67,28.6 19.49,25.74 19.49,22.56 21.35,22.56 21.35,26.4 18.56,30.52 
		16.86,30.52 13.84,26.3 13.84,22.56 	"/>
	<path class="st0" d="M30.87,22.56c0,0,0.17,0.88,0.33,1.46c0.17,0.58,0,6.49,0,6.49h1.96V25.4c0,0-0.1-0.67,0.93-1.02h1.91v-2.07
		h-1.29c0,0-1.23,0.33-1.61,0.84l-0.18-0.01l-0.03-0.97L30.87,22.56z"/>
</g>
</svg>
