<?xml version="1.0" encoding="utf-8"?>
<!-- Generator: Adobe Illustrator 25.0.0, SVG Export Plug-In . SVG Version: 6.00 Build 0)  -->
<svg version="1.1" id="Layer_1" xmlns="http://www.w3.org/2000/svg" xmlns:xlink="http://www.w3.org/1999/xlink" x="0px" y="0px"
	 viewBox="0 0 36 36" style="enable-background:new 0 0 36 36;" xml:space="preserve">
<g>
	<rect x="11.5" y="14.7" width="1.4" height="1.1"/>
	<rect x="15.1" y="18.1" width="1.1" height="1.4"/>
	<path d="M16.2,12.6v-1.4h-1.1v1.4h0.1c-0.4,0.1-0.9,0.3-1.2,0.5l0.1-0.1l-1-1l-0.8,0.8l1,1l0.1-0.1c-0.4,0.5-0.6,1.1-0.6,1.7
		c0,0.5,0.2,1,0.4,1.5l-1,0.9l0.7,0.8l1-0.9c0.5,0.3,1,0.5,1.6,0.5c1.5,0,2.8-1.2,2.8-2.8C18.5,14,17.5,12.8,16.2,12.6z M15.7,17.3
		c-1.1,0-2-0.9-2-2c0-1.1,0.9-2,2-2s2,0.9,2,2C17.8,16.4,16.9,17.3,15.7,17.3z M15.7,13.9c-0.8,0-1.4,0.6-1.4,1.4
		c0,0.8,0.6,1.4,1.4,1.4c0.8,0,1.4-0.6,1.4-1.4C17.1,14.5,16.5,13.9,15.7,13.9z M15.7,15.7c-0.3,0-0.5-0.2-0.5-0.5
		c0-0.3,0.2-0.5,0.5-0.5c0.3,0,0.5,0.2,0.5,0.5C16.2,15.5,16,15.7,15.7,15.7z"/>
	<rect x="17.4" y="12.3" transform="matrix(0.7071 -0.7071 0.7071 0.7071 -3.7662 16.5914)" width="1.4" height="1.1"/>
	<rect x="17.7" y="17.1" transform="matrix(0.7071 -0.7071 0.7071 0.7071 -7.2519 18.094)" width="1.1" height="1.4"/>
	<rect x="18.5" y="14.7" width="1.4" height="1.1"/>
	<path d="M26.4,15.8c-0.7,1.5-1.8,3.6-3.7,5.6C22.3,21.8,20,24,17,25.2c-0.9,0.4-2,0.7-3.3,0.8c-0.7,0-1.2,0.1-1.8-0.1
		c-1.6-0.5-2.4-1.9-2.7-2.5v-1.7l3.5-1.7h1.1l1.7,2l0.5,0c0,0,4.4-1.8,5.9-5.3l0.1-0.3l-1.6-2.1l2.2-4.4h1.9c0,0,1.3,0.8,1.8,2.4
		C26.9,13.8,26.4,15.8,26.4,15.8z"/>
	<rect x="11.5" y="14.7" width="1.4" height="1.1"/>
	<rect x="15.1" y="18.1" width="1.1" height="1.4"/>
	<path d="M16.2,12.6v-1.4h-1.1v1.4h0.1c-0.4,0.1-0.9,0.3-1.2,0.5l0.1-0.1l-1-1l-0.8,0.8l1,1l0.1-0.1c-0.4,0.5-0.6,1.1-0.6,1.7
		c0,0.5,0.2,1,0.4,1.5l-1,0.9l0.7,0.8l1-0.9c0.5,0.3,1,0.5,1.6,0.5c1.5,0,2.8-1.2,2.8-2.8C18.5,14,17.5,12.8,16.2,12.6z M15.7,17.3
		c-1.1,0-2-0.9-2-2c0-1.1,0.9-2,2-2s2,0.9,2,2C17.8,16.4,16.9,17.3,15.7,17.3z M15.7,13.9c-0.8,0-1.4,0.6-1.4,1.4
		c0,0.8,0.6,1.4,1.4,1.4c0.8,0,1.4-0.6,1.4-1.4C17.1,14.5,16.5,13.9,15.7,13.9z M15.7,15.7c-0.3,0-0.5-0.2-0.5-0.5
		c0-0.3,0.2-0.5,0.5-0.5c0.3,0,0.5,0.2,0.5,0.5C16.2,15.5,16,15.7,15.7,15.7z"/>
	<rect x="17.4" y="12.3" transform="matrix(0.7071 -0.7071 0.7071 0.7071 -3.7662 16.5914)" width="1.4" height="1.1"/>
	<rect x="17.7" y="17.1" transform="matrix(0.7071 -0.7071 0.7071 0.7071 -7.2519 18.094)" width="1.1" height="1.4"/>
	<rect x="18.5" y="14.7" width="1.4" height="1.1"/>
	<path d="M26.4,12.2c0.5,1.5,0,3.6,0,3.6c-0.7,1.5-1.8,3.6-3.7,5.6C22.3,21.8,20,24,17,25.2c-0.9,0.4-2,0.7-3.3,0.8
		c-0.7,0-1.2,0.1-1.8-0.1c-1.6-0.5-2.4-1.9-2.7-2.5v-1.7l3.5-1.7h1.1l1.7,2l0.5,0c0,0,4.4-1.8,5.9-5.3l0.1-0.3l-1.6-2.1l2.2-4.4h1.9
		C24.6,9.9,25.8,10.7,26.4,12.2z"/>
	<path d="M32.8,26.3c0.2-0.4,4.8-9,0-17.3c-3.2-5.6-9.5-8.6-15.9-8.3C9.4,1,3.5,5.9,1.4,13C-1,21,2.9,28.5,8.4,32
		c4.6,2.9,9.3,3,10,2.9c3.6-0.1,6.5-1.3,7.8-2.1l9.1,2.5L32.8,26.3z M31,31l-5.4-1.3c-1.3,0.9-4.4,2.5-8.7,2.2
		C10.3,31.4,4.1,26.2,3.6,19C2.9,10,10.8,4.1,17,3.5c0.5,0,1.4-0.2,2.6,0C25.4,4.3,30.9,9,32,15.3c0.9,5.1-1.4,9.2-2.4,10.5L31,31z"
		/>
	<path d="M26.4,15.8c-0.7,1.5-1.8,3.6-3.7,5.6C22.3,21.8,20,24,17,25.2c-0.9,0.4-2,0.7-3.3,0.8c-0.7,0-1.2,0.1-1.8-0.1
		c-1.6-0.5-2.4-1.9-2.7-2.5v-1.7l3.5-1.7h1.1l1.7,2l0.5,0c0,0,4.4-1.8,5.9-5.3l0.1-0.3l-1.6-2.1l2.2-4.4h1.9c0,0,1.3,0.8,1.8,2.4
		C26.9,13.8,26.4,15.8,26.4,15.8z"/>
	<path d="M15.7,13.9c-0.8,0-1.4,0.6-1.4,1.4c0,0.8,0.6,1.4,1.4,1.4c0.8,0,1.4-0.6,1.4-1.4C17.1,14.5,16.5,13.9,15.7,13.9z
		 M15.7,15.7c-0.3,0-0.5-0.2-0.5-0.5c0-0.3,0.2-0.5,0.5-0.5c0.3,0,0.5,0.2,0.5,0.5C16.2,15.5,16,15.7,15.7,15.7z M15.7,13.9
		c-0.8,0-1.4,0.6-1.4,1.4c0,0.8,0.6,1.4,1.4,1.4c0.8,0,1.4-0.6,1.4-1.4C17.1,14.5,16.5,13.9,15.7,13.9z M15.7,15.7
		c-0.3,0-0.5-0.2-0.5-0.5c0-0.3,0.2-0.5,0.5-0.5c0.3,0,0.5,0.2,0.5,0.5C16.2,15.5,16,15.7,15.7,15.7z M15.7,13.9
		c-0.8,0-1.4,0.6-1.4,1.4c0,0.8,0.6,1.4,1.4,1.4c0.8,0,1.4-0.6,1.4-1.4C17.1,14.5,16.5,13.9,15.7,13.9z M15.7,15.7
		c-0.3,0-0.5-0.2-0.5-0.5c0-0.3,0.2-0.5,0.5-0.5c0.3,0,0.5,0.2,0.5,0.5C16.2,15.5,16,15.7,15.7,15.7z"/>
	<path d="M16.2,12.6v-1.4h-1.1v1.4h0.1c-0.4,0.1-0.9,0.3-1.2,0.5l0.1-0.1l-1-1l-0.8,0.8l1,1l0.1-0.1c-0.4,0.5-0.6,1.1-0.6,1.7
		c0,0.5,0.2,1,0.4,1.5l-1,0.9l0.7,0.8l1-0.9c0.5,0.3,1,0.5,1.6,0.5c1.5,0,2.8-1.2,2.8-2.8C18.5,14,17.5,12.8,16.2,12.6z M15.7,17.3
		c-1.1,0-2-0.9-2-2c0-1.1,0.9-2,2-2s2,0.9,2,2C17.8,16.4,16.9,17.3,15.7,17.3z"/>
	<rect x="11.5" y="14.7" width="1.4" height="1.1"/>
	<rect x="15.1" y="18.1" width="1.1" height="1.4"/>
	<rect x="17.7" y="17.1" transform="matrix(0.7071 -0.7071 0.7071 0.7071 -7.2519 18.0943)" width="1.1" height="1.4"/>
	<rect x="17.4" y="12.3" transform="matrix(0.7071 -0.7071 0.7071 0.7071 -3.7662 16.5913)" width="1.4" height="1.1"/>
	<rect x="18.5" y="14.7" width="1.4" height="1.1"/>
	<path d="M15.7,13.9c-0.8,0-1.4,0.6-1.4,1.4c0,0.8,0.6,1.4,1.4,1.4c0.8,0,1.4-0.6,1.4-1.4C17.1,14.5,16.5,13.9,15.7,13.9z
		 M15.7,15.7c-0.3,0-0.5-0.2-0.5-0.5c0-0.3,0.2-0.5,0.5-0.5c0.3,0,0.5,0.2,0.5,0.5C16.2,15.5,16,15.7,15.7,15.7z"/>
	<path d="M15.7,13.9c-0.8,0-1.4,0.6-1.4,1.4c0,0.8,0.6,1.4,1.4,1.4c0.8,0,1.4-0.6,1.4-1.4C17.1,14.5,16.5,13.9,15.7,13.9z
		 M15.7,15.7c-0.3,0-0.5-0.2-0.5-0.5c0-0.3,0.2-0.5,0.5-0.5c0.3,0,0.5,0.2,0.5,0.5C16.2,15.5,16,15.7,15.7,15.7z"/>
</g>
</svg>
