<svg id="Layer_1" data-name="Layer 1" xmlns="http://www.w3.org/2000/svg" viewBox="0 0 32.91 34.77"><path d="M32,12.19a6.6,6.6,0,0,0,1.06-9.08c-.32-.37-4.59-5.41-10,0C22.18,2.81,15.65.79,9.79,4.55a15.37,15.37,0,0,0-6.3,8.56,16,16,0,0,0,0,8.41,15.88,15.88,0,0,0-1.95,3.41,19.42,19.42,0,0,0,8.25,8.45,18.49,18.49,0,0,0,6.53,1.92,17.71,17.71,0,0,0,18.1-10.46l-2-3.26S34,15.4,32,12.19Zm-1.79,7a17.85,17.85,0,0,0-3.35-2.45,18.19,18.19,0,0,0-9.54-2.3A19.73,19.73,0,0,0,5.61,19.2a13.31,13.31,0,0,1,1.3-7.67,12.62,12.62,0,0,1,4-4.56c4.63-3.21,10-1.72,11-1.49a9.16,9.16,0,0,0-.08,1,7.17,7.17,0,0,0,1.1,4.42,6.14,6.14,0,0,0,2.33,2,7,7,0,0,0,4.54.59,12.93,12.93,0,0,1,.62,2.82A15.34,15.34,0,0,1,30.23,19.2Z" transform="translate(-1.54 -0.62)" fill="#231f20"/></svg>