<?xml version="1.0" encoding="utf-8"?>
<!-- Generator: Adobe Illustrator 25.0.0, SVG Export Plug-In . SVG Version: 6.00 Build 0)  -->
<svg version="1.1" id="Layer_1" xmlns="http://www.w3.org/2000/svg" xmlns:xlink="http://www.w3.org/1999/xlink" x="0px" y="0px"
	 viewBox="0 0 36 36" style="enable-background:new 0 0 36 36;" xml:space="preserve">
<style type="text/css">
	.st0{fill:#020202;}
</style>
<g>
	<path class="st0" d="M33.3,8.4l-5.1,4.5c0,0-1,0.6-1,2.1c0,1.5,0,6,0,6s-0.2,1,1.1,2c1.3,1.1,5.4,4.5,5.4,4.5s0.7,0.3,1,0
		c0.3-0.3,0.8-0.4,0.8-1.2c0-0.8,0-17,0-17s0-0.6-0.7-1C34.2,8.1,33.3,8.4,33.3,8.4z"/>
	<path class="st0" d="M19.6,8.1H2.5c0,0-2.1,0.1-2.1,2v11.5c0,1.7,0.7,3.4,1.9,4.6c0.9,0.8,2,1.5,3.6,1.5c4.3,0.1,17.4,0,17.4,0
		s2.2,0.4,2.2-2c0.1-2.3,0-12.2,0-12.2v0c0-0.3,0-0.6-0.1-0.9c-0.4-1.3-1.8-4.7-5.8-4.6C14.8,8.3,19.6,8.1,19.6,8.1z"/>
</g>
</svg>
